<svg width="32" height="32" viewBox="0 0 32 32" fill="none" xmlns="http://www.w3.org/2000/svg">
<path d="M10.4 20C10.1878 20 9.98435 19.9157 9.83432 19.7657C9.68429 19.6157 9.60001 19.4122 9.60001 19.2C9.60001 18.9878 9.68429 18.7843 9.83432 18.6343C9.98435 18.4843 10.1878 18.4 10.4 18.4H21.6C21.8122 18.4 22.0157 18.4843 22.1657 18.6343C22.3157 18.7843 22.4 18.9878 22.4 19.2C22.4 19.4122 22.3157 19.6157 22.1657 19.7657C22.0157 19.9157 21.8122 20 21.6 20H10.4ZM10.4 24C10.1878 24 9.98435 23.9157 9.83432 23.7657C9.68429 23.6157 9.60001 23.4122 9.60001 23.2C9.60001 22.9878 9.68429 22.7843 9.83432 22.6343C9.98435 22.4843 10.1878 22.4 10.4 22.4H21.6C21.8122 22.4 22.0157 22.4843 22.1657 22.6343C22.3157 22.7843 22.4 22.9878 22.4 23.2C22.4 23.4122 22.3157 23.6157 22.1657 23.7657C22.0157 23.9157 21.8122 24 21.6 24H10.4Z" fill="black"/>
<path fill-rule="evenodd" clip-rule="evenodd" d="M17.896 1.6H7.19999C6.56347 1.6 5.95302 1.85286 5.50293 2.30294C5.05284 2.75303 4.79999 3.36348 4.79999 4V28C4.79999 28.6365 5.05284 29.247 5.50293 29.6971C5.95302 30.1471 6.56347 30.4 7.19999 30.4H24.8C25.4365 30.4 26.047 30.1471 26.497 29.6971C26.9471 29.247 27.2 28.6365 27.2 28V11.5232C27.1998 10.9224 26.9743 10.3434 26.568 9.9008L19.6656 2.3776C19.4406 2.13239 19.1672 1.93664 18.8625 1.80277C18.5579 1.66891 18.2287 1.59986 17.896 1.6ZM6.39999 4C6.39999 3.78783 6.48427 3.58434 6.6343 3.43431C6.78433 3.28428 6.98781 3.2 7.19999 3.2H17.896C18.007 3.19988 18.1168 3.22286 18.2185 3.26748C18.3201 3.31211 18.4113 3.3774 18.4864 3.4592L25.3888 10.9824C25.5244 11.1299 25.5998 11.3228 25.6 11.5232V28C25.6 28.2122 25.5157 28.4157 25.3657 28.5657C25.2156 28.7157 25.0122 28.8 24.8 28.8H7.19999C6.98781 28.8 6.78433 28.7157 6.6343 28.5657C6.48427 28.4157 6.39999 28.2122 6.39999 28V4Z" fill="black"/>
<path d="M18.4 3.36V10.88H25.92" stroke="black" stroke-width="1.6" stroke-linecap="round" stroke-linejoin="round"/>
<path d="M13.0144 9.81279C13.2429 9.81979 13.4705 9.78083 13.6836 9.69822C13.8967 9.61562 14.0911 9.49105 14.2552 9.3319C14.4193 9.17276 14.5498 8.98228 14.6389 8.77176C14.728 8.56125 14.7739 8.33498 14.7739 8.10639C14.7739 7.8778 14.728 7.65154 14.6389 7.44102C14.5498 7.23051 14.4193 7.04003 14.2552 6.88088C14.0911 6.72174 13.8967 6.59717 13.6836 6.51456C13.4705 6.43196 13.2429 6.393 13.0144 6.39999C12.5709 6.41358 12.1501 6.59931 11.8412 6.91784C11.5322 7.23637 11.3595 7.66266 11.3595 8.10639C11.3595 8.55012 11.5322 8.97642 11.8412 9.29495C12.1501 9.61348 12.5709 9.79921 13.0144 9.81279Z" fill="black"/>
<path fill-rule="evenodd" clip-rule="evenodd" d="M16.4256 13.5104C16.4256 11.696 14.8976 10.3824 13.0128 10.3824C11.128 10.3824 9.60001 11.6944 9.60001 13.5104V14.3648C9.60043 14.5156 9.66063 14.6601 9.7674 14.7665C9.87418 14.873 10.0188 14.9328 10.1696 14.9328H15.8576C16.0081 14.9324 16.1523 14.8724 16.2588 14.766C16.3652 14.6595 16.4252 14.5153 16.4256 14.3648V13.5104Z" fill="black"/>
</svg>
