<svg width="32" height="32" viewBox="0 0 32 32" fill="none" xmlns="http://www.w3.org/2000/svg">
<g clip-path="url(#clip0_894_5019)">
<path d="M19.3142 4.19065C19.6545 4.28637 19.9429 4.51333 20.1159 4.82162C20.2889 5.12991 20.3324 5.49429 20.2368 5.83465L14.3302 26.8853C14.2829 27.0539 14.2029 27.2116 14.0947 27.3493C13.9865 27.487 13.8522 27.602 13.6995 27.6878C13.5469 27.7736 13.3788 27.8285 13.2049 27.8493C13.0311 27.8702 12.8548 27.8566 12.6862 27.8093C12.5175 27.762 12.3599 27.682 12.2222 27.5738C12.0845 27.4656 11.9695 27.3313 11.8837 27.1787C11.7979 27.026 11.743 26.858 11.7221 26.6841C11.7013 26.5102 11.7149 26.3339 11.7622 26.1653L17.6688 5.11465C17.7161 4.94587 17.7961 4.78807 17.9044 4.65026C18.0127 4.51245 18.1471 4.39735 18.2999 4.31153C18.4527 4.22571 18.621 4.17086 18.795 4.15012C18.969 4.12938 19.1455 4.14315 19.3142 4.19065ZM9.60883 9.39998C9.85879 9.65002 9.99921 9.9891 9.99921 10.3426C9.99921 10.6962 9.85879 11.0353 9.60883 11.2853L4.8955 16L9.60883 20.7133C9.73271 20.8371 9.831 20.9841 9.89807 21.1459C9.96515 21.3076 9.99971 21.481 9.99977 21.6562C9.99983 21.8313 9.9654 22.0047 9.89843 22.1666C9.83147 22.3284 9.73329 22.4754 9.6095 22.5993C9.4857 22.7232 9.33872 22.8215 9.17695 22.8886C9.01517 22.9556 8.84177 22.9902 8.66663 22.9903C8.4915 22.9903 8.31807 22.9559 8.15625 22.8889C7.99443 22.822 7.84738 22.7238 7.7235 22.6L2.06616 16.9426C1.8162 16.6926 1.67578 16.3535 1.67578 16C1.67578 15.6464 1.8162 15.3074 2.06616 15.0573L7.7235 9.39998C7.97353 9.15002 8.31261 9.0096 8.66616 9.0096C9.01972 9.0096 9.35879 9.15002 9.60883 9.39998ZM22.3902 11.2853C22.2628 11.1623 22.1612 11.0152 22.0914 10.8525C22.0215 10.6898 21.9847 10.5149 21.9832 10.3379C21.9816 10.1608 22.0154 9.98524 22.0824 9.82138C22.1494 9.65751 22.2484 9.50865 22.3736 9.38345C22.4988 9.25826 22.6477 9.15926 22.8116 9.09222C22.9754 9.02518 23.151 8.99144 23.328 8.99298C23.5051 8.99452 23.68 9.0313 23.8427 9.10118C24.0054 9.17106 24.1525 9.27264 24.2755 9.39998L29.9328 15.0573C30.1828 15.3074 30.3232 15.6464 30.3232 16C30.3232 16.3535 30.1828 16.6926 29.9328 16.9426L24.2755 22.6C24.0253 22.85 23.6861 22.9904 23.3324 22.9903C22.9787 22.9901 22.6395 22.8495 22.3895 22.5993C22.1395 22.3491 21.9991 22.0099 21.9992 21.6562C21.9994 21.3025 22.14 20.9633 22.3902 20.7133L27.1035 16L22.3902 11.2853Z" fill="black"/>
</g>
<defs>
<clipPath id="clip0_894_5019">
<rect width="32" height="32" fill="white"/>
</clipPath>
</defs>
</svg>
