<svg width="24" height="24" viewBox="0 0 24 24" fill="none" xmlns="http://www.w3.org/2000/svg">
<path d="M21.3896 4.35L12.001 20.475L2.65918 4.35098H5.61816L11.6279 14.7172L12.0596 15.4613L12.4922 14.7172L18.5273 4.35H21.3896Z" fill="#41B883"/>
<path d="M21.3896 4.35L12.001 20.475L2.65918 4.35098H5.61816L11.6279 14.7172L12.0596 15.4613L12.4922 14.7172L18.5273 4.35H21.3896Z" stroke="black"/>
<path d="M21.3896 4.35L12.001 20.475L2.65918 4.35098H5.61816L11.6279 14.7172L12.0596 15.4613L12.4922 14.7172L18.5273 4.35H21.3896Z" stroke="black" stroke-opacity="0.2"/>
<path d="M5.90698 3.851L12.059 14.468L18.24 3.851H14.517L12.084 8.03L9.65998 3.85L5.90698 3.851Z" fill="#35495E"/>
</svg>
