<svg width="32" height="32" viewBox="0 0 32 32" fill="none" xmlns="http://www.w3.org/2000/svg">
<path d="M20.0002 24.4C19.4002 24.4 19.0002 24.2 18.4002 24L16.0002 23L13.6002 24C13.2002 24.2 12.6002 24.4 12.0002 24.4C11.6002 24.4 11.4002 24.4 11.0002 24.2L10.0002 32L16.0002 28L22.0002 32L20.8002 24.2C20.6002 24.4 20.2002 24.4 20.0002 24.4ZM25.8002 11.8C25.6002 11.4 25.6002 10.8 25.8002 10.4L27.0002 8C27.4002 7.2 27.0002 6.2 26.0002 5.8L23.4002 4.8C23.0002 4.6 22.6002 4.2 22.4002 3.8L21.4002 1.2C21.2002 0.4 20.6002 0 20.0002 0C19.8002 0 19.4002 0 19.2002 0.2L16.6002 1.4H16.0002C15.8002 1.4 15.6002 1.4 15.4002 1.2L12.8002 0.2C12.6002 0 12.2002 0 12.0002 0C11.4002 0 10.8002 0.4 10.4002 1L9.40018 3.8C9.40018 4.2 9.00018 4.6 8.60018 4.8L5.80018 5.8C5.00018 6 4.60018 7 5.00018 8L6.20018 10.6C6.40018 11 6.40018 11.6 6.20018 12L5.00018 14.4C4.60018 15.2 5.00018 16.2 6.00018 16.6L8.60018 17.6C9.00018 17.8 9.40018 18.2 9.60018 18.6L10.6002 21.2C10.8002 22 11.4002 22.4 12.0002 22.4C12.2002 22.4 12.4002 22.4 12.6002 22.2L15.2002 21C15.4002 21 15.6002 20.8 15.8002 20.8C16.0002 20.8 16.2002 20.8 16.4002 21L19.0002 22.2C19.2002 22.4 19.4002 22.4 19.6002 22.4C20.2002 22.4 20.8002 22 21.2002 21.4L22.2002 18.8C22.4002 18.4 22.8002 18 23.2002 17.8L25.8002 16.8C26.6002 16.4 27.2002 15.4 26.8002 14.6L25.8002 11.8ZM16.0002 19.2C11.6002 19.2 8.00018 15.6 8.00018 11.2C8.00018 6.8 11.6002 3.2 16.0002 3.2C20.4002 3.2 24.0002 6.8 24.0002 11.2C24.0002 15.6 20.4002 19.2 16.0002 19.2Z" fill="black"/>
<path d="M22 11.2C22 12.7913 21.3679 14.3174 20.2426 15.4426C19.1174 16.5678 17.5913 17.2 16 17.2C14.4087 17.2 12.8826 16.5678 11.7574 15.4426C10.6321 14.3174 10 12.7913 10 11.2C10 9.60865 10.6321 8.08253 11.7574 6.95731C12.8826 5.83209 14.4087 5.19995 16 5.19995C17.5913 5.19995 19.1174 5.83209 20.2426 6.95731C21.3679 8.08253 22 9.60865 22 11.2Z" fill="black"/>
</svg>
