<svg width="32" height="32" viewBox="0 0 32 32" fill="none" xmlns="http://www.w3.org/2000/svg">
<path d="M21.5199 3.00001C20.3354 2.99954 19.1677 3.28039 18.1129 3.81944C17.0582 4.35849 16.1465 5.14033 15.453 6.1006C14.7595 7.06086 14.304 8.17211 14.1239 9.34285C13.9438 10.5136 14.0443 11.7104 14.4172 12.8347L3.69322 23.5613C3.24997 24.0049 3.00098 24.6063 3.00098 25.2333C3.00098 25.8604 3.24997 26.4618 3.69322 26.9053L5.09589 28.308C5.31545 28.5278 5.57619 28.7022 5.8632 28.8212C6.15021 28.9402 6.45786 29.0015 6.76856 29.0015C7.07926 29.0015 7.38691 28.9402 7.67392 28.8212C7.96093 28.7022 8.22167 28.5278 8.44122 28.308L19.1666 17.5813C20.4469 18.0065 21.8183 18.0776 23.1357 17.7869C24.4531 17.4963 25.6673 16.8548 26.6499 15.9303C27.6324 15.0059 28.3466 13.8329 28.7169 12.5356C29.0872 11.2384 29.0997 9.86514 28.7532 8.56134C28.3986 7.22267 26.8306 7.08934 26.0439 7.87601L23.7466 10.172C23.6215 10.3018 23.4719 10.4054 23.3064 10.4767C23.1409 10.548 22.9628 10.5856 22.7826 10.5873C22.6024 10.589 22.4236 10.5548 22.2568 10.4866C22.09 10.4184 21.9384 10.3177 21.811 10.1902C21.6836 10.0628 21.5828 9.91124 21.5146 9.74441C21.4464 9.57759 21.4122 9.39884 21.4139 9.21863C21.4156 9.03841 21.4532 8.86035 21.5245 8.69483C21.5958 8.52932 21.6994 8.37969 21.8292 8.25467L24.1252 5.95734C24.9119 5.17067 24.7786 3.60267 23.4386 3.24801C22.8129 3.0826 22.1684 2.99923 21.5212 3.00001" fill="black"/>
</svg>
